<?xml version="1.0" encoding="UTF-8"?>
<svg version="1.1" xmlns="http://www.w3.org/2000/svg" width="500" height="500">
<path d="M0 0 C0.66 0 1.32 0 2 0 C2.56267578 1.32451172 2.56267578 1.32451172 3.13671875 2.67578125 C6.76496591 11.18434071 10.45311924 19.65640822 14.43359375 28.0078125 C17.2324151 33.9253205 19.75183017 39.85769195 22 46 C22.99234025 48.66958481 23.9941023 51.33549759 25 54 C25.23686523 54.63631348 25.47373047 55.27262695 25.71777344 55.92822266 C28.21006703 62.93559825 28.21006703 62.93559825 32.875 68.50390625 C37.64273675 70.58047909 42.00655195 69.98085587 47 69 C44.61508459 62.0081983 41.8450409 55.2276815 38.85375977 48.47753906 C35.76516158 41.50228482 32.80463218 34.47591339 29.86328125 27.4375 C28.73553373 24.73963838 27.58770774 22.05529083 26.41796875 19.375 C24.17022814 14.19288909 22.38582497 9.65876617 22 4 C32.72750317 1.24392211 32.72750317 1.24392211 38 4 C44.68404242 8.12419639 47.94395073 14.92045391 51 22 C51 23.32 51 24.64 51 26 C51.66 26 52.32 26 53 26 C53.4125 26.85980469 53.825 27.71960938 54.25 28.60546875 C58.38432619 37.06791767 62.92451038 45.06377987 68 53 C69.4540625 52.18208984 69.4540625 52.18208984 70.9375 51.34765625 C71.8975293 50.8077002 71.8975293 50.8077002 72.87695312 50.25683594 C74.30808145 49.45174397 75.73906805 48.64640003 77.16992188 47.84082031 C80.89130251 45.74612178 84.61470649 43.65524918 88.34375 41.57421875 C89.03654053 41.18669434 89.72933105 40.79916992 90.44311523 40.39990234 C91.80868274 39.63648122 93.17537554 38.87506933 94.54321289 38.11572266 C97.96806938 36.20094173 101.22425922 34.19631282 104.4375 31.9375 C108.47884394 29.36816876 112.33971272 29.06105118 117 30 C120.96724754 32.01968966 123.47759883 33.73727671 125 38 C123.37660195 39.70884005 121.70680947 41.37446717 120 43 C119.34 43 118.68 43 118 43 C118 43.66 118 44.32 118 45 C116.02 45.66 114.04 46.32 112 47 C112 47.66 112 48.32 112 49 C111.34 49 110.68 49 110 49 C110 49.66 110 50.32 110 51 C108.02 51.66 106.04 52.32 104 53 C104 53.66 104 54.32 104 55 C102.68 55.33 101.36 55.66 100 56 C100 56.66 100 57.32 100 58 C98.68 58.33 97.36 58.66 96 59 C96 59.66 96 60.32 96 61 C93.8448556 62.68884409 91.68977466 64.26306282 89.4375 65.8125 C88.82841797 66.23853516 88.21933594 66.66457031 87.59179688 67.10351562 C86.35956588 67.96542535 85.12566988 68.82495949 83.89013672 69.68212891 C80.90770203 71.76158931 77.95495057 73.88171497 75 76 C76.26517444 78.75273109 77.53685974 81.50212343 78.8125 84.25 C79.16892578 85.02730469 79.52535156 85.80460937 79.89257812 86.60546875 C81.6628597 90.40588975 83.45625531 93.66133509 86 97 C87.47991767 99.70870225 88.83283539 102.47697951 90.1875 105.25 C90.55552734 105.99507813 90.92355469 106.74015625 91.30273438 107.5078125 C92.2054758 109.33674317 93.1032362 111.16813096 94 113 C97.23136349 109.11792715 99.98827171 105.06812022 102.6875 100.8125 C103.09033203 100.18408203 103.49316406 99.55566406 103.90820312 98.90820312 C106.07595267 95.52448606 106.07595267 95.52448606 108 92 C108.66 92 109.32 92 110 92 C110.33 90.35 110.66 88.7 111 87 C111.66 87 112.32 87 113 87 C113.33 85.68 113.66 84.36 114 83 C114.66 83 115.32 83 116 83 C116.33 81.35 116.66 79.7 117 78 C117.66 78 118.32 78 119 78 C119.27585937 77.43796875 119.55171875 76.8759375 119.8359375 76.296875 C121.04368028 73.91381206 122.32176809 71.5820992 123.625 69.25 C124.07101562 68.45078125 124.51703125 67.6515625 124.9765625 66.828125 C125.31429688 66.22484375 125.65203125 65.6215625 126 65 C126.66 65 127.32 65 128 65 C128.39058594 63.91912109 128.39058594 63.91912109 128.7890625 62.81640625 C130.04657025 59.89168661 131.53769292 57.53299712 133.375 54.9375 C133.96023438 54.10089844 134.54546875 53.26429687 135.1484375 52.40234375 C136.95042073 50.06432754 138.8661781 48.03512089 141 46 C141.66 46.33 142.32 46.66 143 47 C143 47.66 143 48.32 143 49 C144.0828125 49.37125 144.0828125 49.37125 145.1875 49.75 C148.24713266 51.10983674 150.4673738 52.82917754 153 55 C152.690625 55.763125 152.38125 56.52625 152.0625 57.3125 C151.32106407 59.18789677 150.63771783 61.08684652 150 63 C149.34 63 148.68 63 148 63 C147.67 64.65 147.34 66.3 147 68 C146.34 68 145.68 68 145 68 C144.5978125 69.299375 144.5978125 69.299375 144.1875 70.625 C143.02888013 73.91791964 141.61790161 76.91127875 140 80 C139.34 80 138.68 80 138 80 C137.89816406 80.55171875 137.79632813 81.1034375 137.69140625 81.671875 C136.84495404 84.52207567 135.49979966 86.72372821 133.9375 89.25 C133.38964844 90.14203125 132.84179688 91.0340625 132.27734375 91.953125 C131.85582031 92.62859375 131.43429687 93.3040625 131 94 C132.12633347 93.99000725 132.12633347 93.99000725 133.27542114 93.97981262 C140.36670381 93.91959432 147.45789726 93.8739713 154.54936409 93.84456348 C158.1948046 93.82893609 161.84003307 93.80775195 165.48535156 93.77368164 C169.00613349 93.74098283 172.52671201 93.72312499 176.04763412 93.71536827 C178.03842635 93.70716268 180.02913725 93.68376002 182.01980591 93.66011047 C183.85102493 93.65977058 183.85102493 93.65977058 185.71923828 93.65942383 C186.78957306 93.65276199 187.85990784 93.64610016 188.962677 93.63923645 C192.53650562 94.06372443 194.92241118 95.16120766 198 97 C201.44222608 101.54865589 203 106.32435167 203 112 C192.70881459 112.65969137 182.60482677 113.20831975 172.3125 112.375 C165.9850677 111.89199518 159.64361894 111.63784403 154 115 C153.67 115.99 153.34 116.98 153 118 C152.34 118 151.68 118 151 118 C150.731875 118.886875 150.46375 119.77375 150.1875 120.6875 C149 124 149 124 147.5390625 126.39453125 C146.04903108 128.9169956 145.11260147 131.22891981 144.1875 134 C142.22700735 139.59272321 139.8098425 144.89926845 137.26953125 150.25 C135.93873067 152.99960625 135.93873067 152.99960625 135 156 C155.59024989 154.67894414 174.19355141 145.58565456 192.8984375 137.5859375 C196.76757717 135.93995997 200.63967525 134.30323719 204.53125 132.7109375 C205.29759766 132.39688965 206.06394531 132.0828418 206.85351562 131.75927734 C209.90535784 130.67974717 212.78200796 130.27982539 216 130 C219.09532417 135.92148971 220.6878753 140.23589287 220 147 C218.08946568 151.1723328 215.83187323 153.54328528 211.8125 155.75 C210.55215624 156.19739476 209.27975312 156.61159244 208 157 C207.23429687 157.24234375 206.46859375 157.4846875 205.6796875 157.734375 C203.12746351 158.51844381 200.56602587 159.26245963 198 160 C196.31166641 160.49717799 194.6241521 160.9971472 192.9375 161.5 C192.20402344 161.7165625 191.47054688 161.933125 190.71484375 162.15625 C188.41964581 162.86957771 186.14985246 163.62771618 183.875 164.40234375 C178.65537232 166.14959429 173.37356533 167.621399 168.0625 169.0625 C167.13759766 169.31837891 166.21269531 169.57425781 165.25976562 169.83789062 C160.01212977 171.26839542 154.7721026 172.50281415 149.4309082 173.52856445 C145.45849759 174.2989496 141.51192387 175.1829924 137.5625 176.0625 C136.77423828 176.23587891 135.98597656 176.40925781 135.17382812 176.58789062 C132.06188937 177.2791383 129.02644627 177.99118458 126 179 C125.67 179.66 125.34 180.32 125 181 C123.5459375 181.37125 123.5459375 181.37125 122.0625 181.75 C118.69520182 182.7104212 118.69520182 182.7104212 117.625 186.125 C117.41875 187.07375 117.2125 188.0225 117 189 C116.34 189 115.68 189 115 189 C114.87753906 189.51046875 114.75507813 190.0209375 114.62890625 190.546875 C113.79491426 193.79996176 112.86402726 197.02209859 111.9375 200.25 C111.57527344 201.51328125 111.21304687 202.7765625 110.83984375 204.078125 C110.42412109 205.52445312 110.42412109 205.52445312 110 207 C128.20097949 203.52169745 145.92358056 199.30659954 163.68798828 193.98925781 C167.87740687 192.73792919 172.07587745 191.5190474 176.27514648 190.30126953 C179.20567013 189.45037149 182.1342654 188.59311361 185.0625 187.734375 C189.26722443 186.50283038 193.47608716 185.28659624 197.6875 184.078125 C198.78545898 183.76174072 199.88341797 183.44535645 201.01464844 183.11938477 C203.1211878 182.51263403 205.22857126 181.90880377 207.33691406 181.30834961 C208.28276367 181.03514893 209.22861328 180.76194824 210.203125 180.48046875 C211.03489258 180.24223389 211.86666016 180.00399902 212.72363281 179.75854492 C214.94782981 179.01738447 216.9143379 178.06073964 219 177 C223.78237436 175.95040299 227.7754767 175.57698286 232.4375 177.1875 C238.77805154 181.67228035 240.15535394 188.41207357 241.50097656 195.72119141 C241.92789653 198.5809496 242.29151919 201.44036106 242.625 204.3125 C242.74907227 205.35865479 242.87314453 206.40480957 243.00097656 207.48266602 C246.83906231 241.31667127 247.98257059 283.93183983 232 315 C230.67085011 318.47739116 229.51590944 322.0159938 228.33789062 325.546875 C226.60925583 330.60050918 224.50396032 335.28475784 222 340 C221.67845947 340.6089209 221.35691895 341.2178418 221.02563477 341.84521484 C220.10855931 343.56783274 219.17947725 345.284042 218.25 347 C217.63640625 348.134375 217.0228125 349.26875 216.390625 350.4375 C215.93171875 351.283125 215.4728125 352.12875 215 353 C214.34 353 213.68 353 213 353 C212.9071875 353.928125 212.9071875 353.928125 212.8125 354.875 C212 357 212 357 209.4375 358.25 C208.633125 358.4975 207.82875 358.745 207 359 C207 359.66 207 360.32 207 361 C195.28255868 365.69118891 183.52147873 366.04809951 171.0625 366.6875 C169.06306957 366.80394802 167.06371929 366.92178061 165.06445312 367.04101562 C158.71172011 367.40953175 152.35698515 367.71510885 146 368 C144.36578094 368.07468506 144.36578094 368.07468506 142.69854736 368.15087891 C119.74474402 369.16095459 96.79662979 369.15948732 73.82522583 369.12877274 C70.71478231 369.12495679 67.60434187 369.12292099 64.49389648 369.12130737 C39.16011386 369.1058006 13.83018167 369.01121698 -11.5 368.5625 C-12.62942017 368.5429425 -13.75884033 368.52338501 -14.92248535 368.50323486 C-25.55366345 368.31152768 -36.16597359 368.01469556 -46.78515625 367.47265625 C-58.63741228 366.87981789 -70.48143012 366.84846901 -82.34643555 366.86962891 C-85.98555516 366.87507188 -89.62455558 366.86960211 -93.26367188 366.86328125 C-95.60156277 366.86394081 -97.93945359 366.86521943 -100.27734375 366.8671875 C-101.35338364 366.86516327 -102.42942352 366.86313904 -103.53807068 366.86105347 C-108.8113633 366.87751796 -113.80163407 367.12415869 -119 368 C-120.36022385 368.11647911 -121.72237132 368.21443988 -123.0859375 368.28125 C-123.78976563 368.31863281 -124.49359375 368.35601562 -125.21875 368.39453125 C-125.9303125 368.42933594 -126.641875 368.46414063 -127.375 368.5 C-132.45742817 368.75132887 -137.48584898 369.13920702 -142.54052734 369.72802734 C-147.39344881 370.26467163 -152.25987982 370.65455514 -157.125 371.0625 C-158.17042969 371.15337891 -159.21585937 371.24425781 -160.29296875 371.33789062 C-175.38643462 372.60681032 -175.38643462 372.60681032 -180.125 370.8125 C-180.74632812 370.59207031 -181.36765625 370.37164062 -182.0078125 370.14453125 C-187.42961666 367.02965161 -190.38982966 362.11989188 -193.3125 356.8125 C-193.67150391 356.18408203 -194.03050781 355.55566406 -194.40039062 354.90820312 C-197 350.27842262 -197 350.27842262 -197 348 C-197.66 348 -198.32 348 -199 348 C-202.83555476 339.934454 -206.34726569 331.81937182 -209.60546875 323.5078125 C-210.50293694 321.25031549 -211.45013223 319.01163996 -212.45703125 316.80078125 C-230.91459452 274.00167237 -228.65563416 223.25038653 -218 179 C-217.77908691 178.07251953 -217.55817383 177.14503906 -217.33056641 176.18945312 C-214.97081595 166.54348806 -212.76559647 158.9310885 -204.25 153.125 C-197.0160395 150.62093675 -189.08012461 150.85347882 -181.4921875 150.90234375 C-180.64069122 150.9037587 -179.78919495 150.90517365 -178.91189575 150.90663147 C-176.23289241 150.91216081 -173.55397743 150.92469926 -170.875 150.9375 C-169.04166789 150.94252416 -167.20833444 150.94708545 -165.375 150.95117188 C-160.91663341 150.96210694 -156.45833161 150.97932128 -152 151 C-154.7888553 146.20454757 -158.1259477 142.50967729 -161.94140625 138.5 C-164 136 -164 136 -165.08984375 133.25 C-165.39019531 132.5075 -165.69054687 131.765 -166 131 C-166.99 130.67 -167.98 130.34 -169 130 C-172 126.55555556 -172 126.55555556 -172 124 C-172.66 124 -173.32 124 -174 124 C-178 119.52941176 -178 119.52941176 -178 117 C-178.66 117 -179.32 117 -180 117 C-181.7265625 115.13671875 -181.7265625 115.13671875 -183.625 112.6875 C-184.25664062 111.88699219 -184.88828125 111.08648437 -185.5390625 110.26171875 C-187 108 -187 108 -187 105 C-186.34 105 -185.68 105 -185 105 C-184.75507813 104.43796875 -184.51015625 103.8759375 -184.2578125 103.296875 C-182.77073461 100.58134146 -180.95937218 98.53608562 -178.875 96.25 C-178.15054688 95.45078125 -177.42609375 94.6515625 -176.6796875 93.828125 C-176.12539062 93.22484375 -175.57109375 92.6215625 -175 92 C-173.68 92.33 -172.36 92.66 -171 93 C-171 93.66 -171 94.32 -171 95 C-170.34 95 -169.68 95 -169 95 C-168.67 96.32 -168.34 97.64 -168 99 C-167.01 99 -166.02 99 -165 99 C-160 104.34883721 -160 104.34883721 -160 107 C-159.34 107 -158.68 107 -158 107 C-156.6662784 108.68113694 -155.40728884 110.42195478 -154.1875 112.1875 C-150.88719151 116.87533346 -150.88719151 116.87533346 -147 121.0625 C-146.01 122.0215625 -146.01 122.0215625 -145 123 C-145 123.66 -145 124.32 -145 125 C-144.34 125 -143.68 125 -143 125 C-142.01 127.475 -142.01 127.475 -141 130 C-140.34 130 -139.68 130 -139 130 C-138.7525 130.969375 -138.505 131.93875 -138.25 132.9375 C-137.8375 133.948125 -137.425 134.95875 -137 136 C-134.98491642 136.73323796 -134.98491642 136.73323796 -133 137 C-132.67 137.99 -132.34 138.98 -132 140 C-131.34 140 -130.68 140 -130 140 C-130 140.66 -130 141.32 -130 142 C-125.73989211 142.81083624 -121.7098481 143.13515187 -117.375 143.125 C-116.26898438 143.12757813 -115.16296875 143.13015625 -114.0234375 143.1328125 C-111.4881845 143.0214448 -109.41082513 142.74088772 -107 142 C-108.33999498 138.993182 -109.79845291 137.00237391 -112.1875 134.75 C-114.7574649 132.25984768 -117.16886874 129.71526802 -119.5 127 C-122.31950055 123.72533344 -125.29350133 120.68272191 -128.375 117.65625 C-129.88346432 116.11877675 -131.26364129 114.54266441 -132.625 112.875 C-135.66138146 109.19938034 -139.02635135 105.9486833 -142.4375 102.625 C-144.93053332 100.07116099 -147.22316383 97.42025207 -149.5234375 94.6953125 C-150.8276231 93.19791422 -152.22088076 91.77911924 -153.625 90.375 C-159.95238095 84.04761905 -159.95238095 84.04761905 -160.125 80.25 C-157.81025084 73.56294688 -153.40469156 67.55131921 -148 63 C-145.6875 62.1875 -145.6875 62.1875 -144 62 C-144 61.34 -144 60.68 -144 60 C-132.86280022 55.85592566 -121.80956293 58.17692104 -110.65234375 60.9296875 C-105.15674328 62.26396474 -99.58371763 63.12335928 -94 64 C-94.02094727 63.06728271 -94.04189453 62.13456543 -94.06347656 61.17358398 C-94.13197396 57.68650274 -94.18195446 54.20014459 -94.21972656 50.71264648 C-94.23974363 49.20829938 -94.26696627 47.70402911 -94.30175781 46.19995117 C-94.35071945 44.02763838 -94.37306653 41.85636094 -94.390625 39.68359375 C-94.41157227 38.37962646 -94.43251953 37.07565918 -94.45410156 35.73217773 C-93.65706109 29.18144783 -90.17044248 24.09826341 -85 20 C-81.80425355 18.60951718 -78.53781906 17.63438361 -75.1875 16.6875 C-74.30384766 16.42388672 -73.42019531 16.16027344 -72.50976562 15.88867188 C-70.34363529 15.24468718 -68.17430083 14.6157171 -66 14 C-62.45833333 21.08333333 -58.91666667 28.16666667 -55.375 35.25 C-54.99214844 36.013125 -54.60929688 36.77625 -54.21484375 37.5625 C-53.30311245 39.39182582 -52.40107878 41.22599017 -51.50390625 43.0625 C-48.93888905 48.28208612 -46.43724749 53.30242843 -43 58 C-42.01 59.423125 -42.01 59.423125 -41 60.875 C-40.01 61.926875 -40.01 61.926875 -39 63 C-37.68 63 -36.36 63 -35 63 C-34.71125 62.401875 -34.4225 61.80375 -34.125 61.1875 C-33 59 -33 59 -31 56 C-30.34 56 -29.68 56 -29 56 C-28.72027344 55.12085938 -28.44054687 54.24171875 -28.15234375 53.3359375 C-27.10842327 50.31387619 -25.9258892 47.51360501 -24.5625 44.625 C-22.44202764 40.10656136 -20.35227534 35.57760741 -18.30078125 31.02734375 C-17.57942993 29.4338208 -17.57942993 29.4338208 -16.84350586 27.80810547 C-15.87824606 25.67474491 -14.9167063 23.53969656 -13.95922852 21.40283203 C-10.7330516 14.29893386 -7.65509309 8.46658999 -2 3 C-1.34 2.01 -0.68 1.02 0 0 Z M-1.5625 52.390625 C-2.036875 53.00421875 -2.51125 53.6178125 -3 54.25 C-4.57299096 56.25043416 -6.05594899 58.05142786 -7.93359375 59.77734375 C-20.24858523 73.02352551 -21.69910063 92.47707868 -21.2890625 109.59765625 C-20.83430357 120.40677914 -19.74300764 132.66288812 -12.1875 141 C-8.78057984 142.55744921 -6.73052336 142.55040509 -3 142 C4.48674873 138.67400535 8.77503359 133.40088446 12 126 C17.4324315 111.2665873 15.71243743 94.54602847 13.25 79.375 C13.01494751 77.91936646 13.01494751 77.91936646 12.77514648 76.43432617 C11.17293338 67.47744058 8.33044312 59.01131978 4 51 C0.14937995 50.55678176 0.14937995 50.55678176 -1.5625 52.390625 Z M-71 61 C-71.48517403 64.42764055 -71.48517403 64.42764055 -71.25 68.1875 C-71.21390625 69.45980469 -71.1778125 70.73210937 -71.140625 72.04296875 C-71.09421875 73.01878906 -71.0478125 73.99460937 -71 75 C-68.1004339 76.65876079 -66.08364791 77.2361216 -62.75 77.125 C-61.5125 77.08375 -60.275 77.0425 -59 77 C-59.5746621 72.21357393 -60.98245643 68.46211213 -63.0625 64.125 C-63.61035156 62.97257812 -64.15820312 61.82015625 -64.72265625 60.6328125 C-65.14417969 59.76398438 -65.56570312 58.89515625 -66 58 C-68.30574694 58 -69.46082313 59.46390149 -71 61 Z M-123.8125 81.5 C-124.99779297 81.91765625 -124.99779297 81.91765625 -126.20703125 82.34375 C-126.79871094 82.5603125 -127.39039062 82.776875 -128 83 C-126.90565266 86.28304203 -126.2416645 86.86062949 -123.6484375 88.97265625 C-120.08922013 91.99108222 -116.75026006 95.17362771 -113.4765625 98.49609375 C-112.99999207 98.97833405 -112.52342163 99.46057434 -112.03240967 99.95742798 C-110.05433363 101.96253686 -108.08060362 103.97183225 -106.11083984 105.98510742 C-104.65371557 107.47224382 -103.19058243 108.95325005 -101.7265625 110.43359375 C-100.43613037 111.74928345 -100.43613037 111.74928345 -99.11962891 113.09155273 C-97.22764598 115.22303868 -97.22764598 115.22303868 -95 115 C-94.67 115.66 -94.34 116.32 -94 117 C-93.91217458 113.47932649 -93.85933357 109.95893856 -93.8125 106.4375 C-93.78736328 105.44685547 -93.76222656 104.45621094 -93.73632812 103.43554688 C-93.66198401 95.97635376 -94.31988302 90.94812868 -99.5 85.25 C-106.29593505 80.08917714 -115.88625181 78.66074692 -123.8125 81.5 Z M-70 100 C-70 112.21 -70 124.42 -70 137 C-63.39207258 136.61301956 -63.39207258 136.61301956 -60.25 134 C-53.60200505 125.13600673 -54.03303747 114.23890538 -55.5 103.625 C-55.665 102.75875 -55.83 101.8925 -56 101 C-60.9297199 99.59577396 -60.9297199 99.59577396 -70 100 Z M117 120 C117 120.66 117 121.32 117 122 C116.01 122 115.02 122 114 122 C114 122.66 114 123.32 114 124 C113.41476562 124.22816406 112.82953125 124.45632812 112.2265625 124.69140625 C109.40506846 126.34965275 108.18414036 128.22378946 106.375 130.9375 C105.78460938 131.81277344 105.19421875 132.68804687 104.5859375 133.58984375 C104.06257813 134.38519531 103.53921875 135.18054688 103 136 C102.34 136.99 101.68 137.98 101 139 C101 140.32 101 141.64 101 143 C100.34 143 99.68 143 99 143 C96.68407978 146.22114157 96.68407978 146.22114157 96 150 C94.515 150.495 94.515 150.495 93 151 C91.78130071 153.50447516 91.78130071 153.50447516 91 156 C98.43107244 155.82608128 104.85714271 154.38269241 111 150 C111.68720306 148.67713411 112.35672601 147.34477537 113 146 C113.99 145.67 114.98 145.34 116 145 C121.325311 137.68657289 124.26305225 128.80452825 126 120 C125.505 119.01 125.505 119.01 125 118 C122.11604263 118 119.70522185 119.05905327 117 120 Z M61.3125 124.75 C60.69955078 125.09804687 60.08660156 125.44609375 59.45507812 125.8046875 C53.43239563 129.25351947 48.24046415 132.39164419 44 138 C43.0925 138.886875 42.185 139.77375 41.25 140.6875 C38.76754835 142.70116241 38.76754835 142.70116241 39 145 C38.34 145 37.68 145 37 145 C31.41235704 156.21652313 29.13769772 166.12581437 32.73828125 178.546875 C33.42780721 180.3899681 34.20399237 182.20033057 35 184 C38.40312738 182.94124926 41.01353231 181.99097846 44 180 C44 179.34 44 178.68 44 178 C44.58523438 177.72800781 45.17046875 177.45601562 45.7734375 177.17578125 C50.28377713 174.79400541 54.1440713 171.7118574 56.4375 167.125 C56.623125 166.42375 56.80875 165.7225 57 165 C57.66 165 58.32 165 59 165 C69.42057631 151.8105277 69.5888865 136.9701488 69 121 C66.45860283 121 63.53189643 123.47401673 61.3125 124.75 Z M-37.875 147.375 C-40.20429024 149.46362557 -42.38743521 151.25829014 -45 153 C-45 153.66 -45 154.32 -45 155 C-46.98 155.99 -46.98 155.99 -49 157 C-45.2662169 162.85525077 -41.22013443 168.3077468 -36.8359375 173.69140625 C-34.70681242 176.36866779 -32.82530345 179.1099362 -31 182 C-29.68 181.34 -28.36 180.68 -27 180 C-27.49903611 171.55710452 -28.74364702 163.50361857 -30.5625 155.25 C-30.79646484 154.15945312 -31.03042969 153.06890625 -31.27148438 151.9453125 C-31.84099267 149.29535552 -32.41722202 146.6470643 -33 144 C-34.95613945 144 -36.50507768 146.14558253 -37.875 147.375 Z M-129.5 167.5625 C-134.45938244 174.04661167 -139.85382416 181.52180125 -140 190 C-137.97398917 192.02601083 -136.49969819 192.83003706 -133.9296875 194.0234375 C-132.70765625 194.59578125 -132.70765625 194.59578125 -131.4609375 195.1796875 C-130.60757813 195.57414062 -129.75421875 195.96859375 -128.875 196.375 C-127.2053327 197.15279532 -125.53605789 197.93143377 -123.8671875 198.7109375 C-123.05080811 199.09088867 -122.23442871 199.47083984 -121.39331055 199.86230469 C-118.49441704 201.24033628 -115.64203491 202.6993894 -112.79956055 204.18994141 C-109.39030041 205.72459412 -106.77392956 206 -103 206 C-97.38343 203.31093465 -93.37684295 199.81317599 -89.0625 195.375 C-88.17981445 194.49714844 -88.17981445 194.49714844 -87.27929688 193.6015625 C-84.08935287 190.81440283 -84.08935287 190.81440283 -83 187 C-82.01 186.67 -81.02 186.34 -80 186 C-80 185.34 -80 184.68 -80 184 C-78.68 183.34 -77.36 182.68 -76 182 C-76.56219954 174.97250571 -78.74758236 171.20122633 -83.75 166.3125 C-95.91436634 157.65708549 -118.5377144 156.32615726 -129.5 167.5625 Z M-1.76171875 165.67578125 C-4.01443873 169.9040727 -3.76987116 174.35327764 -3 179 C-1.54932446 181.35734776 -0.2813049 182.34605395 2 184 C4.80863551 182.59568225 5.00033174 180.62536341 5.953125 177.77539062 C6.28570312 176.74188477 6.28570312 176.74188477 6.625 175.6875 C6.85445312 175.01009766 7.08390625 174.33269531 7.3203125 173.63476562 C8.44230901 170.21868696 9 167.6334852 9 164 C7.56416999 163.89163547 6.1259798 163.81423833 4.6875 163.75 C3.88699219 163.70359375 3.08648437 163.6571875 2.26171875 163.609375 C-0.12215973 163.80532087 -0.12215973 163.80532087 -1.76171875 165.67578125 Z M-191 167 C-191.33 168.32 -191.66 169.64 -192 171 C-188.41377442 173.20842935 -184.76857037 175.18302167 -181 177.0625 C-179.989375 177.56910156 -178.97875 178.07570312 -177.9375 178.59765625 C-172.23143865 181.32524504 -172.23143865 181.32524504 -166 182 C-165.32591692 180.73308493 -164.66099503 179.46129251 -164 178.1875 C-163.62875 177.47980469 -163.2575 176.77210938 -162.875 176.04296875 C-161.80314642 173.91079271 -161.80314642 173.91079271 -162 171 C-161.34 171 -160.68 171 -160 171 C-159.67 169.68 -159.34 168.36 -159 167 C-169.64046562 165.38025699 -180.31424078 166.34376552 -191 167 Z M73 190 C68.49715024 195.21382604 61 205.80351455 61 213 C68.82233352 214.39695052 68.82233352 214.39695052 76.33984375 212.45703125 C83.24975344 206.39256933 86.19919924 196.71244557 88 188 C80.15455076 187.44835803 80.15455076 187.44835803 73 190 Z M-199 193 C-198.89042969 193.54785156 -198.78085938 194.09570312 -198.66796875 194.66015625 C-197.11197917 202.44010417 -195.55598958 210.22005208 -194 218 C-190.15225136 216.71741712 -189.11143336 214.92380914 -186.625 211.75 C-184.2605917 208.74370766 -181.97585118 205.97686583 -179.2109375 203.328125 C-176.65568922 201.17255143 -176.65568922 201.17255143 -177 198 C-179.54093855 197.35118552 -182.08268273 196.70587101 -184.625 196.0625 C-185.33785156 195.88009766 -186.05070312 195.69769531 -186.78515625 195.50976562 C-190.83969313 194.48683201 -194.85947059 193.62042633 -199 193 Z M-54 194 C-59.4380813 196.57593325 -64.27377293 199.25840357 -69 203 C-69 203.66 -69 204.32 -69 205 C-69.99 205.33 -70.98 205.66 -72 206 C-72 206.66 -72 207.32 -72 208 C-72.556875 208.226875 -73.11375 208.45375 -73.6875 208.6875 C-76.64691361 210.36716718 -78.62408786 212.56751852 -81 215 C-83 216.66666667 -85 218.33333333 -87 220 C-88.0828125 221.1446875 -88.0828125 221.1446875 -89.1875 222.3125 C-93.4368261 226.37296717 -98.17863031 229.65455981 -103 233 C-104.0725 233.763125 -105.145 234.52625 -106.25 235.3125 C-114.86442427 239.96221334 -125.54156486 240.66124786 -135 239 C-134.28972656 237.94039062 -133.57945312 236.88078125 -132.84765625 235.7890625 C-131.91921005 234.40108232 -130.99082796 233.01305926 -130.0625 231.625 C-129.59392578 230.92632812 -129.12535156 230.22765625 -128.64257812 229.5078125 C-128.19462891 228.8375 -127.74667969 228.1671875 -127.28515625 227.4765625 C-126.87144775 226.85861816 -126.45773926 226.24067383 -126.03149414 225.60400391 C-124.94056583 223.97082732 -124.94056583 223.97082732 -124 222 C-133.5894586 216.75103319 -143.83691625 212.96907623 -154 209 C-155.00593243 210.1196986 -156.0045849 211.2459412 -157 212.375 C-157.556875 213.00148437 -158.11375 213.62796875 -158.6875 214.2734375 C-160.20172487 215.90389833 -160.20172487 215.90389833 -160 218 C-160.99 218.33 -161.98 218.66 -163 219 C-164.6345582 220.7530422 -164.6345582 220.7530422 -166.125 222.875 C-166.64320313 223.57367188 -167.16140625 224.27234375 -167.6953125 224.9921875 C-169.16097361 227.0633378 -169.16097361 227.0633378 -170 230 C-171.625 230.9375 -171.625 230.9375 -174 232 C-175.19236674 232.67902434 -176.37953458 233.36722645 -177.5625 234.0625 C-182.12372707 236.63337344 -185.02895843 237.11796819 -190.1875 237.0625 C-191.81751953 237.04896484 -191.81751953 237.04896484 -193.48046875 237.03515625 C-194.31191406 237.02355469 -195.14335937 237.01195312 -196 237 C-196.20460535 250.85178218 -196.34217191 264.31293293 -194 278 C-193.84556844 279.45744789 -193.69824945 280.91569347 -193.5625 282.375 C-192.87246513 286.82189138 -191.53509162 290.78361502 -190 295 C-189.69964844 295.87914062 -189.39929688 296.75828125 -189.08984375 297.6640625 C-186.86792465 304.05095545 -184.1624371 310.02506761 -181 316 C-180.34 316 -179.68 316 -179 316 C-179 316.66 -179 317.32 -179 318 C-170.41333274 321.57122832 -161.78212973 321.80467927 -152.625 322.28125 C-150.91051269 322.37963939 -149.19609179 322.47919213 -147.48173523 322.57983398 C-143.86043259 322.79037134 -140.23882882 322.99368463 -136.61679077 323.19116211 C-130.97390432 323.49937262 -125.33223456 323.82670752 -119.69067383 324.15820312 C-117.8189869 324.26797701 -115.94729807 324.37771836 -114.0756073 324.48742676 C-112.69728257 324.56822227 -112.69728257 324.56822227 -111.2911129 324.65065002 C-107.63317126 324.8642601 -103.97506868 325.07503151 -100.31695652 325.28569794 C-91.7974042 325.77654053 -83.27837032 326.27320541 -74.76171875 326.8125 C-73.96304886 326.86188721 -73.16437897 326.91127441 -72.34150696 326.9621582 C-69.78892768 327.12709322 -67.23835823 327.31018027 -64.6875 327.5 C-63.41163528 327.59414185 -62.13577057 327.68828369 -60.82124329 327.78527832 C-49.61747458 328.65202116 -38.52121807 330.03810798 -27.39453125 331.59375 C-25.69264377 331.82821725 -23.99069891 332.06226845 -22.28869629 332.29589844 C-18.19179091 332.85916725 -14.09568935 333.42795898 -10 334 C-9.90686402 323.0288561 -9.83601536 312.05780796 -9.79275131 301.08634758 C-9.77197508 295.99052733 -9.74384188 290.89497977 -9.69824219 285.79931641 C-9.65442601 280.87149543 -9.63078819 275.94393491 -9.62049103 271.01593399 C-9.61316331 269.14627108 -9.59885615 267.27662061 -9.57707977 265.40707016 C-9.37660286 249.30362038 -9.37660286 249.30362038 -14 234 C-18.3371927 229.88058656 -22.70760792 230.58776065 -28.42578125 230.6953125 C-33.06793001 231.09103666 -36.70869468 232.22428745 -41 234 C-41 234.66 -41 235.32 -41 236 C-56.36350895 241.33455172 -67.15684751 241.26582775 -83 238 C-81.68 237.34 -80.36 236.68 -79 236 C-79 235.34 -79 234.68 -79 234 C-78.32582031 233.7628125 -77.65164062 233.525625 -76.95703125 233.28125 C-73.28390001 231.68972154 -70.04545248 229.66485917 -66.6875 227.5 C-66.04232422 227.09652344 -65.39714844 226.69304687 -64.73242188 226.27734375 C-63.11718738 225.24154258 -61.55327117 224.12659452 -60 223 C-60 222.34 -60 221.68 -60 221 C-58.02 220.34 -56.04 219.68 -54 219 C-54 218.34 -54 217.68 -54 217 C-53.01 217 -52.02 217 -51 217 C-51 216.34 -51 215.68 -51 215 C-50.278125 214.7525 -49.55625 214.505 -48.8125 214.25 C-45.75008733 212.8889277 -43.57205542 211.12680885 -41 209 C-47.11885409 201.15803636 -47.11885409 201.15803636 -54 194 Z M195 210 C193.21280266 212.38120801 192.97063123 213.58181421 193.1796875 216.55859375 C195.27212938 225.22224354 199.03588838 231.68943182 204 239 C203.21625 239.144375 202.4325 239.28875 201.625 239.4375 C199.03578982 239.87798925 199.03578982 239.87798925 197 241 C190.91017708 241.88441412 186.78058175 240.93807502 181.76171875 237.41796875 C179.32026713 235.45289793 177.1883435 233.24171773 175 231 C167.68646329 224.63478043 159.16285333 218.53174567 149 219 C141.17547141 220.31749774 133.55224041 222.59623951 126 225 C126.63608923 227.57275377 127.30615874 230.12896035 128 232.6875 C129.10984829 237.0854809 129.60315401 241.48848774 130 246 C129.25234375 245.79503906 128.5046875 245.59007812 127.734375 245.37890625 C126.74953125 245.10949219 125.7646875 244.84007812 124.75 244.5625 C123.77546875 244.29566406 122.8009375 244.02882813 121.796875 243.75390625 C119.53627347 243.14455416 117.27377991 242.55761745 115 242 C115 241.34 115 240.68 115 240 C113.9171875 239.2265625 113.9171875 239.2265625 112.8125 238.4375 C109.06036355 235.18564841 107.205642 231.39251258 105 227 C98.75666184 228.26983149 92.76207205 229.94479504 86.69921875 231.90234375 C82.6238282 233.11162014 78.5227763 234.13612999 74.39624023 235.15454102 C68.80510688 236.54639601 63.23211059 238.00666745 57.66186523 239.47949219 C56.33724982 239.82870451 55.01204362 240.17568293 53.6862793 240.52050781 C42.22826749 242.88237258 42.22826749 242.88237258 32.35215759 248.54724121 C30.35731466 252.16580503 30.57410821 255.71630137 30.59594727 259.74414062 C30.58908401 260.62587448 30.58222076 261.50760834 30.57514954 262.4160614 C30.55685323 265.32962155 30.5607227 268.24264475 30.56640625 271.15625 C30.56184615 273.18119482 30.5565411 275.20613809 30.55052185 277.2310791 C30.54158544 281.47459197 30.54402035 285.71791668 30.55395508 289.96142578 C30.56545154 295.40250941 30.54522541 300.84294473 30.51603794 306.28394318 C30.4977036 310.46523165 30.49796278 314.64636392 30.50367546 318.8276825 C30.50382898 320.8339682 30.49775934 322.8402643 30.48538399 324.84651184 C30.47052625 327.65004327 30.4811121 330.4523661 30.49829102 333.25585938 C30.48862305 334.0861113 30.47895508 334.91636322 30.46899414 335.77177429 C30.51380645 339.25958553 30.6935079 341.54454694 32.66436768 344.47328186 C35.48276859 346.31556832 37.53350257 346.75843358 40.87182617 347.17163086 C42.02838715 347.31865448 43.18494812 347.4656781 44.3765564 347.61715698 C50.26358562 348.23916419 56.14920971 348.7888197 62.05078125 349.25390625 C63.3483989 349.35968491 64.64601654 349.46546356 65.98295593 349.57444763 C68.70968991 349.79653049 71.43664057 350.01561409 74.16381836 350.23217773 C77.60983675 350.50585481 81.05539504 350.7848685 84.50082588 351.06583595 C103.13693941 352.59335272 103.13693941 352.59335272 121.79760742 353.76928711 C124.87678679 353.99112324 127.91367956 354.37345348 130.97410583 354.77171326 C134.20620698 355.13592075 137.4337197 355.22357602 140.68359375 355.31640625 C141.73330101 355.3475779 141.73330101 355.3475779 142.80421448 355.37937927 C144.2721759 355.42226671 145.74019108 355.46334948 147.20825195 355.50268555 C149.42868067 355.56226336 151.64889576 355.62731427 153.86914062 355.69335938 C171.90490847 356.97018876 171.90490847 356.97018876 188 350 C190.45262958 347.36557376 190.45262958 347.36557376 191 344 C191.66 344 192.32 344 193 344 C194.76853573 340.0059696 196.52782205 336.00801638 198.27954102 332.0065918 C198.87352063 330.65300825 199.46978443 329.30042417 200.06860352 327.94897461 C204.27868704 318.44176328 207.87155211 308.91912819 211 299 C211.26611084 298.19344971 211.53222168 297.38689941 211.80639648 296.5559082 C217.78633089 278.31547439 219.23443978 259.28794126 219.3125 240.1875 C219.32083862 238.49971436 219.32083862 238.49971436 219.3293457 236.77783203 C219.2926691 219.90868832 219.2926691 219.90868832 211 206 C205.38080975 205.15712146 199.83157674 207.18447686 195 210 Z " fill="#060606" transform="translate(242,15)"/>
<path d="M0 0 C25.48467881 0.5623905 50.59327389 2.98151827 75.8125 6.5625 C76.56047852 6.66832397 77.30845703 6.77414795 78.07910156 6.88317871 C85.07109238 7.87999313 92.01541711 8.90694786 98.89331055 10.53735352 C103.22035264 11.48760786 107.61849797 12.04752899 112 12.6875 C125.72423299 14.7421232 139.39496173 17.08422227 153.06835938 19.44995117 C170.36217286 22.43831862 187.64582211 25.20054945 205.0715332 27.30761719 C207.69754464 27.62621867 210.32238522 27.95347528 212.94726562 28.28125 C229.7854748 30.35445044 246.54959283 31.15447782 263.5 31.5625 C265.20964228 31.6058499 266.91927777 31.64946836 268.62890625 31.69335938 C272.75253285 31.79865442 276.8762329 31.90036579 281 32 C276.49212878 37.84442073 271.42125184 40.49155584 265 44 C263.86046875 44.65355469 262.7209375 45.30710937 261.546875 45.98046875 C215.01893424 72.29634039 152.81713544 74.40958557 102 61 C101.2560498 60.81179688 100.51209961 60.62359375 99.74560547 60.4296875 C76.23117434 54.47038077 54.70089478 44.32890988 34.3125 31.25 C32.94629517 30.38072876 32.94629517 30.38072876 31.55249023 29.49389648 C30.70630127 28.94419189 29.8601123 28.3944873 28.98828125 27.828125 C28.22040283 27.3321582 27.45252441 26.83619141 26.66137695 26.32519531 C26.11312256 25.88788086 25.56486816 25.45056641 25 25 C25 24.34 25 23.68 25 23 C24.2884375 22.75894531 23.576875 22.51789063 22.84375 22.26953125 C19.57647425 20.81092601 17.24335103 18.98004756 14.5 16.6875 C13.5821875 15.92824219 12.664375 15.16898437 11.71875 14.38671875 C7.39820311 10.59382486 3.3953029 6.6528225 0 2 C0 1.34 0 0.68 0 0 Z " fill="#050505" transform="translate(90,420)"/>
<path d="M0 0 C55.27484757 1.54071405 110.56326872 1.71141588 165.85557556 1.96298027 C169.2054302 1.97822164 172.55528415 1.99360919 175.90513802 2.0090189 C203.62664278 2.13616089 231.3481873 2.25112195 259.06979561 2.35317326 C257.55261062 5.52671171 255.88200317 7.87045681 253.50729561 10.47817326 C250.99300345 13.2135537 250.99300345 13.2135537 249.06979561 16.35317326 C248.40979561 16.35317326 247.74979561 16.35317326 247.06979561 16.35317326 C247.06979561 17.34317326 247.06979561 18.33317326 247.06979561 19.35317326 C245.43012351 20.71956667 243.75869433 22.04811515 242.06979561 23.35317326 C241.47167061 24.13692326 240.87354561 24.92067326 240.25729561 25.72817326 C233.70539514 33.59045382 223.01565217 40.18316819 213.06979561 42.35317326 C212.42584343 42.51895374 211.78189125 42.68473423 211.11842537 42.85553837 C205.3523698 44.28536328 199.95329593 44.65828788 194.02682686 44.59145451 C192.6048877 44.5825494 192.6048877 44.5825494 191.15422249 44.57346439 C179.98319065 44.43061437 168.88120754 43.51427791 157.75729561 42.54067326 C155.58397205 42.35631772 153.41063206 42.17215593 151.23727608 41.98818302 C132.21509728 40.35719678 113.3613432 38.22063124 94.50729561 35.21621037 C88.6178043 34.27864955 82.72469865 33.36483709 76.83151436 32.45082951 C73.57275821 31.9437347 70.3140682 31.43621663 67.05539131 30.92861271 C64.86217676 30.58751094 62.66881772 30.24733691 60.47531319 29.9081049 C48.141131 27.99956122 35.83746493 25.99577747 23.56401253 23.7273798 C16.5391463 22.42944294 9.50739814 21.24278831 2.44479561 20.16567326 C1.40452217 20.00131779 0.36424873 19.83696232 -0.70754814 19.66762638 C-1.74266533 19.50842716 -2.77778252 19.34922794 -3.84426689 19.18520451 C-4.73065849 19.04832218 -5.61705009 18.91143986 -6.53030205 18.77040958 C-16.43800127 17.55453582 -26.42417987 17.03147715 -36.38204956 16.38259411 C-40.38728513 16.12072163 -44.39210405 15.85258335 -48.39700127 15.58559513 C-53.45464449 15.24877042 -58.51238839 14.91376739 -63.57058525 14.58535099 C-67.69561116 14.31735715 -71.82018334 14.04313623 -75.94453049 13.76489925 C-77.50108849 13.66100952 -79.05779609 13.55933348 -80.61465454 13.46004772 C-89.16195411 12.91382307 -97.53710268 12.16554787 -105.93020439 10.35317326 C-105.93020439 8.37317326 -105.93020439 6.39317326 -105.93020439 4.35317326 C-101.03725788 3.78185306 -96.14236321 3.23259556 -91.2451458 2.69912052 C-89.59904741 2.51721302 -87.95347298 2.33046149 -86.30862236 2.13759708 C-57.64564079 -1.21088207 -28.79260519 -0.80290899 0 0 Z " fill="#060606" transform="translate(176.9302043914795,394.6468267440796)"/>
</svg>
